<svg version="1.1" id="Layer_1" xmlns="http://www.w3.org/2000/svg" x="0" y="0" viewBox="0 0 256 256" style="enable-background:new 0 0 256 256" xml:space="preserve"><style>.st1{fill:#55acd5}.st3{fill:#ffcd29}.st5{fill:#ea4647}.st6{fill:#231f20}</style><g id="Layer_13"><path d="M225.8 174.6c-1.1-1.1-2.8-1.1-3.8 0l-49.6 49.6c-1.1 1.1-1.1 2.8 0 3.8l8.8 8.8 53.4-53.4-8.8-8.8z" style="fill:#e9e9ea"/><path class="st1" d="m250.7 190.3-8-8c-1.9-1.9-5.1-1.9-7 0L180.9 237c-1.9 1.9-1.9 5.1 0 7l8 8c1.9 1.9 5.1 1.9 7 0l54.8-54.8c2-1.9 2-5 0-6.9z"/><path d="M203.9 163.5c-6.1-6.1-7.9-11.7-10.3-15.9-1.7-3.3-3.9-6.4-6.6-9l-30.2-30.2c-3.3-3.3-8.6-3.3-11.8 0s-3.3 8.6 0 11.8c-3.3-3.3-8.6-3.3-11.8 0s-3.3 8.6 0 11.8c-3.3-3.3-8.6-3.3-11.8 0s-3.3 8.6 0 11.8l-24.3-24.3c-3.3-3.2-8.5-3.2-11.8 0-3.2 3.3-3.2 8.5 0 11.8l38.5 38.6c-3.6-3.6-9.5-3.6-13.2 0s-3.6 9.5 0 13.2l8.2 8.2c6.2 6.2 14.1 10.3 22.6 11.9 7 1.9 15.4.5 26.3 10.6l7.6 7.4 43.1-43.1-14.5-14.6z" style="fill:#f9d0b4"/><path class="st3" d="M161.3 72.5c.8-.8.8-2.1 0-3-.3-.3-.7-.5-1.2-.6l-51-7.4c-.7-.1-1.3-.5-1.6-1.1L84.7 14.2c-.5-1-1.8-1.5-2.8-.9-.4.2-.7.5-.9.9L58.2 60.4c-.3.6-.9 1-1.6 1.1l-51 7.4c-1.1.2-1.9 1.2-1.8 2.4.1.5.3.9.6 1.2l36.9 36c.5.5.7 1.2.6 1.8l-8.7 50.8c-.2 1.1.6 2.2 1.7 2.4.5.1.9 0 1.3-.2l45.6-24c.6-.3 1.3-.3 1.9 0l19.8 10.4-18.4-18.4c-3.2-3.3-3.2-8.6.1-11.8 3.2-3.2 8.4-3.2 11.7 0l24.3 24.3c-3.3-3.3-3.3-8.5 0-11.8 1.5-1.5 3.5-2.4 5.7-2.5l-3.3-19.3c-.1-.7.1-1.4.6-1.8l37.1-35.9zM79.1 167.3h-1.8v-1.8c0-1.4-1.1-2.5-2.5-2.5s-2.5 1.1-2.5 2.5v1.8h-1.8c-1.4 0-2.5 1.1-2.5 2.5s1.1 2.5 2.5 2.5h1.8v1.8c0 1.4 1.1 2.5 2.5 2.5s2.5-1.1 2.5-2.5v-1.8h1.8c1.4 0 2.5-1.1 2.5-2.5s-1.1-2.5-2.5-2.5z"/><path d="M135.7 2c0-.2-.1-.3-.1-.5-.1-.2-.1-.3-.2-.4-.1-.1-.2-.3-.3-.4-1-.9-2.5-.9-3.5 0-.1.1-.2.2-.3.4-.1.1-.2.3-.2.4-.1.2-.1.3-.1.5s0 .3-.1.5c0 .2 0 .3.1.5 0 .2.1.3.1.5.1.1.1.3.2.4.1.1.2.3.3.4 1 1 2.5 1 3.5 0 .1-.1.2-.2.3-.4.1-.1.2-.3.2-.4.1-.1.1-.3.1-.5s.1-.3.1-.5-.1-.4-.1-.5z" style="fill:#6dcc6d"/><path class="st5" d="M84.1 211.6c-.1-.3-.2-.6-.4-.9-.1-.1-.2-.3-.3-.4-1-.9-2.5-.9-3.5 0-.1.1-.2.2-.3.4-.1.1-.2.3-.2.4-.1.2-.1.3-.1.5-.1.3-.1.7 0 1 0 .2.1.3.1.5.1.1.1.3.2.4.1.1.2.3.3.4 1 1 2.5 1 3.5 0 .1-.1.2-.2.3-.4.1-.1.2-.3.2-.4.1-.1.1-.3.1-.5.2-.4.2-.7.1-1zM123.5 16.5c-4.1-.8-7.2-4-8-8 0-.1-.1-.2-.2-.2s-.1.1-.2.2c-.8 4.1-4 7.2-8 8-.1 0-.2.1-.1.2 0 .1.1.1.1.1 4.1.8 7.2 4 8 8 0 .1.1.2.2.2s.1-.1.2-.2c.8-4.1 4-7.2 8-8 .1 0 .2-.1.1-.2 0 0 0-.1-.1-.1z"/><path class="st1" d="M56 186.5c-4.1-.8-7.2-4-8-8 0-.1-.1-.2-.2-.2s-.1.1-.2.2c-.8 4.1-4 7.2-8 8-.1 0-.2.1-.2.2s.1.1.2.2c4.1.8 7.2 4 8 8 0 .1.1.2.2.2s.1-.1.2-.2c.8-4.1 4-7.2 8-8 .1 0 .2-.1.2-.2s-.1-.2-.2-.2z"/><path class="st6" d="m236.3 181.6-8.8-8.8c-2-2-5.3-2-7.3 0l-49.6 49.6c-2 2-2 5.3 0 7.3l8.8 8.8c1 1 2.6 1 3.5 0l53.4-53.4c1-.9 1-2.5 0-3.5.1 0 .1 0 0 0zm-55.2 51.7-7-7c-.1-.1-.1-.2 0-.3l49.6-49.6c.1-.1.2-.1.3 0l7 7-49.9 49.9zM131.8 174.4l-6.4-6.4c-1-1-2.6-1-3.5 0-1 1-1 2.5 0 3.5l6.4 6.4c1 1 2.6 1 3.5 0 1-.9 1-2.5 0-3.5.1 0 0 0 0 0zM130.3 149.2l-7.1-7.1c-1-1-2.6-1-3.5 0-1 1-1 2.5 0 3.5l7.1 7.1c1 1 2.6.9 3.5-.1.9-.9.9-2.4 0-3.4zM142.1 137.4l-7.1-7.1c-1-1-2.6-1-3.5 0-1 1-1 2.5 0 3.5l7.1 7.1c1 1 2.6 1 3.5 0 1-.9 1-2.5 0-3.5zM153.9 125.6l-7.1-7.1c-1-1-2.6-.9-3.5.1-.9 1-.9 2.5 0 3.5l7.1 7.1c1 1 2.6.9 3.5-.1 1-1 1-2.6 0-3.5z"/><path class="st6" d="m252.5 188.5-8-8c-2.9-2.9-7.6-2.9-10.5 0l-54.8 54.8c-2.9 2.9-2.9 7.6 0 10.5l8 8c2.9 2.9 7.6 2.9 10.5 0l54.8-54.8c2.9-2.9 2.9-7.6 0-10.5zm-3.5 7-54.8 54.8c-1 1-2.5 1-3.5 0l-8-8c-1-1-1-2.5 0-3.5l54.8-54.8c1-1 2.5-1 3.5 0l8 8c.9 1 .9 2.5 0 3.5zM220.3 176.3l-14.6-14.6c-3.4-3.5-6.1-7.5-8.1-12-.6-1.2-1.1-2.3-1.7-3.3-1.8-3.5-4.2-6.8-7-9.6l-30.2-30.2c-4.2-4.2-11.1-4.2-15.4 0-2 2-3.2 4.8-3.2 7.7v1c-6-.6-11.3 3.8-11.8 9.8v2c-5.5-.5-10.5 3.1-11.6 8.5l-17.9-17.9c-4.3-4.2-11.1-4.1-15.3.1-4.1 4.2-4.1 11 0 15.2l31.7 31.8c-6.4 1.1-10.8 7.2-9.7 13.6.4 2.4 1.6 4.6 3.3 6.4l8.2 8.2c6.5 6.5 14.8 10.9 23.9 12.5 1.8.4 3.6.8 5.4 1 5.6.9 12 1.8 19.7 8.9l7.6 7.4c1 1 2.5.9 3.5 0l43.1-43.1c1-.8 1-2.4.1-3.4zm-44.9 41.3-5.9-5.7c-8.9-8.2-16.4-9.3-22.4-10.2-1.7-.2-3.3-.5-5-.9h-.2c-8.1-1.4-15.5-5.3-21.3-11.2l-8.2-8.2c-2.7-2.7-2.7-7 0-9.6 2.7-2.7 7-2.7 9.6 0 1 1 2.6 1 3.5 0 1-1 1-2.5 0-3.5L87 129.7c-2.3-2.3-2.3-6 0-8.3 2.3-2.3 6-2.3 8.3 0l24.3 24.3c1 1 2.6 1 3.5 0 1-1 1-2.6 0-3.5-2.3-2.3-2.3-6 0-8.3 2.3-2.3 6-2.3 8.3 0 1 1 2.6 1 3.5 0 1-1 1-2.5 0-3.5-2.3-2.3-2.3-6 0-8.3 2.3-2.3 6-2.3 8.3 0 1 1 2.5 1 3.5.1 1-1 1-2.5.1-3.5l-.1-.1c-2.3-2.3-2.3-6 0-8.3 2.3-2.3 6-2.3 8.3 0l30.2 30.2c2.5 2.5 4.5 5.3 6.1 8.4 0 0 0 .1.1.1.5.9 1 2 1.6 3.1 2.2 4.9 5.3 9.4 9.1 13.3l12.8 12.8-39.5 39.4z"/><path class="st6" d="M164.2 69.6c-.5-1.7-2-2.9-3.7-3.1l-50.8-7.4-22.7-46c-1.1-2.3-3.9-3.2-6.1-2.1-.9.4-1.6 1.2-2.1 2.1L56 59.1 5.3 66.5c-2.5.4-4.2 2.7-3.9 5.2.1 1 .6 1.9 1.3 2.6l36.7 35.8-8.7 50.6c-.4 2.5 1.2 4.9 3.7 5.3 1 .2 2 0 2.9-.5l45.4-23.9 19.6 10.3c1.2.6 2.7.2 3.4-1 .5-1 .3-2.2-.4-2.9l-10.5-10.6-7.8-7.8c-2.3-2.3-2.3-6 0-8.3 2.3-2.3 6-2.3 8.3 0l24.3 24.3c1 1 2.6 1 3.5 0 1-1 1-2.5 0-3.5-2.3-2.3-2.3-6 0-8.3 1.1-1.1 2.5-1.7 4-1.7 1.4 0 2.5-1.2 2.4-2.6v-.3l-3.3-19.1L163 74.3c1.3-1.2 1.7-3.1 1.2-4.7zm-41.6 37.1c-1.1 1.1-1.6 2.6-1.3 4.1l2.9 16.8c-3.8 1.1-6.6 4.2-7.5 8.1l-17.9-17.9c-4.2-4.2-11.1-4.3-15.3 0s-4.3 11.1 0 15.3l6.8 6.8-5.3-2.8c-1.3-.7-2.9-.7-4.3 0l-44.9 23.6 8.6-50c.3-1.5-.2-3-1.3-4.1L6.8 71.3 57 64c1.5-.2 2.8-1.2 3.5-2.5L82.9 16l22.4 45.5c.7 1.4 2 2.3 3.5 2.5l50.2 7.3-36.4 35.4z"/></g></svg>